<?xml version="1.0" encoding="UTF-8"?>
<!DOCTYPE svg PUBLIC "-//W3C//DTD SVG 1.1//EN" "http://www.w3.org/Graphics/SVG/1.1/DTD/svg11.dtd">
<svg xmlns="http://www.w3.org/2000/svg" version="1.1" width="14px" height="12px" style="shape-rendering:geometricPrecision; text-rendering:geometricPrecision; image-rendering:optimizeQuality; fill-rule:evenodd; clip-rule:evenodd" xmlns:xlink="http://www.w3.org/1999/xlink">
<g><path style="opacity:0.964" fill="#FF4C29" d="M 0.5,-0.5 C 4.5,-0.5 8.5,-0.5 12.5,-0.5C 12.5,0.166667 12.8333,0.5 13.5,0.5C 13.5,2.5 13.5,4.5 13.5,6.5C 12.0527,8.40318 10.386,10.0699 8.5,11.5C 7.16667,11.5 5.83333,11.5 4.5,11.5C 4.5,10.8333 4.16667,10.5 3.5,10.5C 3.5,8.5 2.5,7.5 0.5,7.5C 0.5,6.83333 0.166667,6.5 -0.5,6.5C -0.5,4.5 -0.5,2.5 -0.5,0.5C 0.166667,0.5 0.5,0.166667 0.5,-0.5 Z"/></g>
<g><path style="opacity:0.362" fill="#FF4C29" d="M 0.5,7.5 C 2.5,7.5 3.5,8.5 3.5,10.5C 2.16667,9.83333 1.16667,8.83333 0.5,7.5 Z"/></g>
</svg>
